<?xml version="1.0" encoding="UTF-8" standalone="no"?>
<!-- Created with Inkscape (http://www.inkscape.org/) -->

<svg
   width="210.26054mm"
   height="243.53537mm"
   viewBox="0 0 210.26054 243.53537"
   version="1.1"
   id="svg1"
   xml:space="preserve"
   xmlns="http://www.w3.org/2000/svg"
   xmlns:svg="http://www.w3.org/2000/svg"><defs
     id="defs1" /><g
     id="layer1"
     transform="translate(0.26055463)"><rect
       style="fill:#ffffff;stroke-width:1;stroke-linejoin:round"
       id="rect2"
       width="146.31802"
       height="190.65607"
       x="33.863113"
       y="19.604959"
       ry="32.766621" /><path
       id="rect1"
       style="display:inline;fill:#000000;fill-opacity:1;stroke:none;stroke-width:0.877161;stroke-linejoin:round"
       d="M 29.558297,0 C 13.038675,0 -0.26055461,13.299229 -0.26055461,29.818852 V 180.44221 c 0,16.51962 13.29922961,29.81885 29.81885161,29.81885 h 44.582809 c -0.0616,-0.45979 -0.194343,-1.38217 -0.346749,-2.4076 -1.214445,-8.17116 -2.010363,-19.46631 -2.008663,-28.50679 0.0022,-12.1518 0.532402,-17.73839 3.95428,-41.67187 0.426519,-2.98317 0.853943,-6.14642 0.949813,-7.02903 0.09586,-0.8826 0.263443,-1.74887 0.372587,-1.92547 0.111576,-0.18053 1.274008,3.35936 2.655135,8.08685 4.442806,15.20739 5.450107,17.92503 7.755599,20.9243 1.869684,2.43231 4.663795,4.73365 8.842871,7.2838 1.284547,0.78386 4.325351,2.68447 6.757211,4.22351 2.43187,1.53903 6.65859,4.0728 9.39271,5.63015 2.73412,1.55735 6.04283,3.4551 7.35252,4.21731 6.77878,3.94516 7.91094,4.31261 10.14925,3.29696 1.43823,-0.65261 2.02824,-0.65967 2.46962,-0.03 0.52108,0.74341 4.35622,3.99178 6.44147,5.45599 1.01295,0.71127 2.50199,1.911 3.30884,2.66599 2.64958,2.47924 5.45122,3.55586 9.25576,3.55586 h 2.57039 l 0.18345,3.50573 c 0.10091,1.92815 0.414,5.58578 0.69557,8.12818 0.23314,2.10525 0.43126,3.95715 0.49247,4.5961 h 24.7959 C 196.70077,210.26103 210,196.9618 210,180.44218 V 29.818852 C 210,13.299229 196.70077,0 180.18114,0 Z m 70.751233,25.599471 c 2.45517,-0.06432 4.77172,0.17604 6.7784,0.72502 2.60458,0.712551 6.00607,2.440258 7.56646,3.843176 1.48669,1.336667 3.4022,4.089916 4.37338,6.285922 0.69906,1.580698 0.7183,1.534158 -0.76533,1.861385 -1.54402,0.340543 -8.98349,-1.011215 -13.78985,-2.50579 -3.39069,-1.054366 -6.090841,-1.448081 -7.440375,-1.084689 -2.234111,0.601584 -3.979741,2.345775 -4.862753,4.858102 -0.451965,1.285932 -0.529166,2.183591 -0.529166,6.146394 v 4.641061 l 0.859896,0.916223 c 1.003832,1.069635 2.763903,1.630268 4.245219,1.352372 0.841699,-0.157904 1.078394,-0.371284 1.638659,-1.476912 0.796674,-1.572161 1.52932,-2.122351 2.82515,-2.122351 2.1817,0 3.18765,2.102768 2.4753,5.174361 -0.62377,2.689669 -1.67146,4.403209 -3.37602,5.520079 -0.37687,0.24693 -0.880078,0.8597 -1.118277,1.36167 -0.368298,0.77614 -0.381165,1.02119 -0.08682,1.63814 0.283406,0.59403 0.545863,0.73974 1.450557,0.80564 1.14825,0.0837 2.84277,-0.58507 3.50573,-1.38389 0.49803,-0.60009 1.02527,-0.52373 3.21996,0.46508 1.07552,0.48457 2.69957,1.10916 3.60908,1.38855 0.9095,0.27939 1.65365,0.58773 1.65365,0.68523 0,0.0975 -0.62507,0.38241 -1.38906,0.63303 -4.60243,1.50981 -12.276398,6.27848 -16.533364,10.2738 -2.557989,2.40077 -2.771667,2.54221 -3.836458,2.53421 -0.620177,-0.004 -1.365705,-0.14842 -1.656747,-0.31988 -0.291041,-0.17147 -2.097245,-0.45081 -4.013708,-0.62115 -3.931836,-0.34948 -5.215217,-0.81023 -5.985165,-2.14871 -0.562151,-0.97726 -0.866171,-3.30039 -0.610298,-4.66431 0.166825,-0.88926 0.249244,-0.95049 1.674833,-1.24644 1.737858,-0.36078 2.71663,-0.76216 2.71663,-1.11362 0,-0.13609 -0.204579,-0.59281 -0.454236,-1.01545 -0.384623,-0.65111 -0.620642,-0.76842 -1.547709,-0.76842 -0.601753,0 -1.467913,-0.13024 -1.924431,-0.28939 -0.860378,-0.29992 -1.135877,-0.89102 -1.499133,-3.21634 l -0.155029,-0.99219 H 75.23923 c -1.859474,0 -2.135151,-0.0648 -2.501656,-0.58808 -0.226533,-0.32342 -0.411862,-0.85721 -0.411862,-1.18597 0,-0.74486 3.744708,-8.150884 4.621424,-9.140013 0.736624,-0.831076 1.320215,-0.888921 3.183785,-0.314192 1.380838,0.425853 4.527815,0.317762 5.490104,-0.188619 0.633739,-0.333492 0.589763,-1.579794 -0.08578,-2.438611 C 84.53496,46.612243 82.898002,45.8771 80.363468,45.561043 79.071384,45.39992 77.91199,45.17529 77.787398,45.061849 c -0.591319,-0.5384 0.907284,-6.123165 2.486153,-9.265585 2.233921,-4.446168 6.456817,-7.537302 12.425081,-9.095052 2.561885,-0.668666 5.15574,-1.037422 7.610898,-1.101741 z m -1.346684,12.368754 c 0.827189,0.052 1.932924,0.331715 3.542424,0.853178 4.84126,1.568528 10.91174,2.793834 15.18098,3.064412 2.11945,0.134328 3.97444,0.318971 4.12223,0.410311 0.14779,0.09134 0.59373,0.782654 0.99115,1.53634 0.68737,1.303594 0.72296,1.550875 0.72296,5.074626 0,3.376865 -0.0672,3.902886 -0.7581,5.953125 -0.80517,2.389467 -2.2685,5.299147 -3.16053,6.283857 -0.35153,0.38805 -0.82295,0.58671 -1.3534,0.57051 -1.40319,-0.0429 -4.24004,-0.6947 -6.00067,-1.37873 -0.93063,-0.36157 -2.23567,-0.85656 -2.90008,-1.09968 -0.6644,-0.24313 -1.53319,-0.70219 -1.93063,-1.02009 l -0.72244,-0.57774 0.44183,-1.719794 c 0.31616,-1.230179 0.40493,-2.369355 0.31213,-4.000789 -0.16588,-2.916844 -1.0443,-4.718885 -2.90577,-5.962943 -2.62394,-1.753631 -5.047841,-1.351762 -7.62382,1.264522 -0.842102,0.855278 -1.612096,1.55546 -1.711006,1.55546 -0.09891,0 -0.136519,-1.69664 -0.0832,-3.770312 0.106175,-4.128998 0.474088,-5.350682 1.965254,-6.523633 0.494759,-0.389177 1.043498,-0.564632 1.870688,-0.51263 z M 81.205791,59.732784 c -0.09192,0.003 -0.176957,0.0186 -0.253732,0.0481 -0.219377,0.0842 -0.524687,0.53437 -0.678511,1.00046 -0.267823,0.81151 -0.217566,0.91155 1.184424,2.35903 1.942503,2.00552 2.943307,3.63207 3.615283,5.87509 0.305171,1.01865 0.671775,2.00091 0.814937,2.18281 0.381391,0.48461 2.02973,0.4214 2.224154,-0.0853 0.286553,-0.74675 -0.444908,-4.14693 -1.258838,-5.85236 -1.295271,-2.714 -4.268875,-5.56985 -5.647717,-5.52783 z m 37.177059,7.83467 c 1.91689,-0.0514 3.17841,0.60702 4.14032,2.07636 0.46063,0.70362 0.91245,1.57638 1.00355,1.93941 0.16051,0.63952 0.11345,0.66552 -1.50688,0.83354 -2.51415,0.2607 -10.39799,1.71283 -12.65246,2.33061 -1.0914,0.29907 -3.65125,1.171 -5.68854,1.93735 -2.03729,0.76636 -4.388779,1.69898 -5.225523,2.07274 -0.836745,0.37371 -1.521355,0.58459 -1.521355,0.46819 0,-0.49663 3.074758,-3.05398 5.926768,-4.92941 3.35905,-2.20885 11.16681,-5.97079 13.37593,-6.44457 0.79779,-0.1711 1.50923,-0.26708 2.14819,-0.28422 z m 7.12411,8.82013 c 3.1121,0.18585 4.75542,0.78619 12.03854,4.3987 6.63024,3.28868 10.39121,5.96815 12.8509,9.15551 3.52975,4.57399 15.30942,30.386536 19.54971,42.838206 2.32451,6.82595 2.40352,9.9902 0.42788,17.19792 -1.46014,5.32703 -4.10404,13.30624 -5.23224,15.79077 l -0.80253,1.76733 -1.44022,-1.55546 c -0.79205,-0.8555 -1.93935,-1.84179 -2.5492,-2.19211 -0.60985,-0.35031 -1.81859,-1.07233 -2.68614,-1.60456 -0.86754,-0.53224 -2.5198,-1.35324 -3.67161,-1.82417 -1.15182,-0.47094 -2.14964,-1.00053 -2.21744,-1.17719 -0.0678,-0.17666 0.31461,-2.14149 0.84956,-4.36614 1.14983,-4.78173 2.70022,-12.30964 3.03754,-14.74949 0.37323,-2.69955 -0.55968,-27.7376 -1.06298,-28.52953 -0.70566,-1.11039 -2.6015,-1.1027 -3.20136,0.0129 -0.23593,0.43879 -0.3262,4.32751 -0.3483,15.01201 -0.0333,16.08676 0.002,15.67864 -2.03708,23.54791 -2.18442,8.43054 -2.54376,9.32829 -3.85041,9.61854 -0.4054,0.0901 -1.19815,0.27518 -1.76165,0.41134 -1.00959,0.24394 -1.05017,0.2237 -2.77813,-1.39216 -0.96446,-0.9019 -2.17009,-1.92572 -2.67942,-2.2748 -0.50932,-0.34907 -1.81877,-1.29753 -2.9099,-2.10788 -1.09114,-0.81035 -4.60349,-3.26901 -7.80521,-5.46375 -10.60512,-7.26964 -11.81729,-8.14295 -12.43593,-8.96069 -0.66708,-0.88177 -1.69612,-4.29692 -3.95118,-13.11393 -3.30157,-12.90875 -3.42299,-13.22917 -5.02295,-13.22917 -1.0367,0 -1.70583,0.65284 -1.99833,1.94975 -0.16394,0.72689 0.10468,2.21994 1.22887,6.83215 0.79124,3.24619 1.7341,7.2717 2.09548,8.94519 1.02848,4.76269 2.14505,8.86316 2.71456,9.96838 0.71659,1.39068 1.7008,2.25391 5.99188,5.25549 2.03729,1.42507 5.90683,4.15846 8.59896,6.07405 2.69214,1.9156 6.29992,4.46964 8.0176,5.67562 1.71769,1.20599 3.31138,2.47982 3.54138,2.83084 1.52866,2.33302 -3.03969,13.08976 -6.75101,15.89619 -0.62978,0.47622 -1.34415,0.86543 -1.5875,0.86506 -0.66873,-0.001 -12.91168,-6.88727 -21.21214,-11.93106 -4.34903,-2.6427 -12.478468,-8.2583 -13.766082,-9.50949 -2.779365,-2.70074 -3.610338,-4.63319 -6.764445,-15.73238 -0.951126,-3.34698 -2.384534,-8.22854 -3.185336,-10.84791 -2.055899,-6.72472 -4.248087,-15.94032 -4.775419,-20.07371 -0.424334,-3.32607 -0.423583,-3.64425 0.0124,-5.86321 0.56219,-2.86126 2.001571,-6.191726 3.643188,-8.428426 1.33627,-1.82066 5.17324,-5.03681 9.708968,-8.13852 8.402181,-5.74575 26.178546,-11.4558 34.176726,-10.97814 z m 26.32604,87.613256 3.36207,1.66398 c 3.28633,1.62637 4.5461,2.62499 4.38475,3.47731 -0.12539,0.66241 -1.2774,0.62415 -3.53209,-0.11731 -2.69801,-0.88725 -4.2793,-1.07397 -5.54798,-0.65526 -0.64083,0.21149 -1.95743,1.23064 -3.6065,2.79156 -2.17851,2.06205 -2.83076,2.52612 -4.04781,2.87993 -2.0551,0.59743 -2.41994,1.53643 -1.14773,2.95383 0.49326,0.54956 0.49057,0.60813 -0.17157,3.54138 -0.37029,1.64038 -0.67334,3.02568 -0.67334,3.07888 0,0.50406 -1.12269,-0.30417 -3.26544,-2.35076 -2.87382,-2.74485 -2.9851,-3.03844 -1.80971,-4.7811 1.59523,-2.36512 3.19092,-5.4313 3.87987,-7.45588 0.39615,-1.16417 0.83912,-2.43821 0.98444,-2.83135 0.21856,-0.59129 0.63702,-0.84143 2.42052,-1.44694 1.89277,-0.64261 2.55974,-0.73352 5.46323,-0.74052 z m 0.53796,8.86302 c 0.58713,8e-5 1.74542,0.23865 2.57348,0.52969 1.04557,0.36749 2.18372,0.52916 3.72536,0.52916 2.56348,0 3.4803,0.47343 3.75532,1.93942 0.2186,1.16527 -0.82194,3.86734 -2.71766,7.05642 -1.85176,3.11514 -2.13285,3.44075 -4.46381,5.17797 -1.65124,1.23064 -2.07078,1.41807 -3.43958,1.5379 -2.73454,0.23939 -4.80393,-0.61286 -6.2141,-2.55954 -0.95461,-1.3178 -1.01876,-2.9684 -0.22944,-5.91385 0.74689,-2.78711 1.03645,-3.25866 3.64681,-5.93917 2.14099,-2.19851 2.36824,-2.35814 3.36362,-2.358 z" /><path
       style="font-size:38.1px;font-family:'Sour Gummy';-inkscape-font-specification:'Sour Gummy';stroke-linejoin:round"
       d="m 61.518392,242.81146 q -1.7526,-0.4191 -3.1623,-1.2954 -1.4097,-0.8763 -2.4003,-2.2098 -0.9906,-1.3716 -1.4859,-3.2004 -0.4572,-1.8288 -0.381,-4.1529 0.3048,-2.3241 1.0287,-4.4196 0.7239,-2.0955 2.1336,-3.9243 1.4097,-1.8669 3.6957,-3.3909 2.7432,-1.6764 5.333999,-1.7145 2.5908,-0.0381 5.0292,1.2573 1.2573,0.8001 1.9812,1.8288 0.7239,0.9906 1.0287,2.1336 0.3048,1.1049 0.2286,2.286 -0.0381,1.143 -0.381,2.2479 0,0 -0.1524,0.1905 -0.1524,0.1524 -0.4572,0.3429 -0.2667,0.1524 -0.762,0.0762 -0.5334,-0.1143 -0.8382,-0.4572 -0.3048,-0.3429 -0.4191,-0.6477 -0.1143,-0.3048 -0.1143,-0.3048 0.1143,-0.762 0.0381,-1.7526 -0.0762,-0.9906 -0.381,-1.9812 -0.3429,-0.6858 -1.0668,-1.143 -0.6858,-0.4572 -1.6383,-0.6096 -0.9525,-0.1905 -2.0193,0 -1.028699,0.1905 -2.057399,0.8001 -1.6383,0.9525 -2.8956,2.1717 -1.2573,1.1811 -2.0955,2.8194 -0.8001,1.6002 -1.143,3.7719 -0.3429,2.7051 0.381,4.5339 0.762,1.8288 2.3241,2.8575 1.4097,0.5334 2.7813,0.8382 1.3716,0.2667 2.743199,0.1524 1.4097,-0.1143 2.9718,-0.762 0.9144,-0.5334 1.2192,-1.1811 0.3048,-0.6477 -0.2667,-1.4478 -0.8382,-0.5334 -2.0193,-0.9906 -1.1811,-0.4572 -2.628899,-0.7239 0,0 -0.1143,-0.1143 -0.1143,-0.1143 -0.2667,-0.2667 -0.1143,-0.1905 -0.2286,-0.4572 -0.0762,-0.3048 -0.0381,-0.6096 0.1143,-0.4191 0.3048,-0.6096 0.2286,-0.1905 0.4191,-0.2286 0.228599,-0.0762 0.228599,-0.0762 1.143,-0.0381 2.2098,0.2286 1.0668,0.2667 2.0193,0.6858 0.9906,0.381 1.7526,0.8382 0.8382,0.6477 1.4097,1.4097 0.6096,0.7239 0.8382,1.5621 0.2286,0.8382 0,1.7526 -0.1905,0.8763 -0.9906,1.7526 -0.9525,0.9144 -2.286,1.524 -1.2954,0.6096 -2.8575,0.9144 -1.5621,0.3048 -3.238499,0.2286 -1.6383,-0.0762 -3.3147,-0.5334 z m 26.708119,0.5715 q -3.2766,-0.2286 -5.524499,-1.8288 -2.2479,-1.6383 -3.4671,-4.6863 -1.2192,-3.048 -1.3716,-7.5438 v -9.525 q 0,0 0.0381,-0.1905 0.0762,-0.1905 0.1905,-0.4191 0.1524,-0.2667 0.4953,-0.4572 0.3429,-0.1905 0.9144,-0.1905 0.762,0 1.1811,0.2667 0.4572,0.2286 0.6858,0.5715 0.2286,0.3429 0.3048,0.6096 0.0762,0.2286 0.0762,0.2286 l 0.1524,8.9154 q -0.0381,3.2385 0.6096,5.6007 0.6477,2.3241 2.019299,3.6195 1.4097,1.2954 3.5433,1.5621 1.7907,-0.2667 3.048,-1.4097 1.2954,-1.1811 1.9431,-3.6195 0.6858,-2.4384 0.6477,-6.4389 l -0.1143,-8.1153 q 0,0 0,-0.2286 0,-0.2286 0.1143,-0.4953 0.1524,-0.2667 0.4953,-0.4953 0.3429,-0.2286 0.9906,-0.2286 0.6477,0 1.0668,0.2286 0.4572,0.1905 0.6858,0.5334 0.2667,0.3048 0.381,0.6477 0.1524,0.3048 0.1905,0.5334 0.0381,0.2286 0.0381,0.2286 l 0.1905,7.8105 q 0.0762,2.9337 -0.3429,5.5245 -0.4191,2.5527 -1.4859,4.572 -1.0287,1.9812 -2.9337,3.1623 -1.8669,1.143 -4.7625,1.2573 z m 14.744689,-0.1143 q -0.6096,0 -0.9906,-0.2286 -0.381,-0.2667 -0.6096,-0.5715 -0.1905,-0.3429 -0.2667,-0.5715 -0.0762,-0.2667 -0.0762,-0.2667 -0.1524,-1.6383 -0.2667,-3.7338 -0.0762,-2.1336 -0.1143,-4.4958 0,-2.3622 0.0381,-4.7244 0.0381,-2.4003 0.1524,-4.6101 0.1143,-2.2479 0.2667,-4.0767 0,0 0.0381,-0.1905 0.0381,-0.2286 0.1905,-0.4953 0.1524,-0.3048 0.4953,-0.4953 0.381,-0.2286 0.9906,-0.2286 0.6477,0.0381 1.0287,0.2667 0.381,0.1905 0.5715,0.5334 0.2286,0.3048 0.3048,0.6096 0.0762,0.3048 0.0762,0.5334 0,0.1905 0,0.1905 -0.1524,1.5621 -0.2286,3.6195 -0.0762,2.0193 -0.1143,4.3053 0,2.286 0,4.6482 0.0381,2.3241 0.0762,4.5339 0.0762,2.1717 0.1905,4.0005 0,0 -0.0381,0.2286 -0.0381,0.2286 -0.1905,0.5334 -0.1524,0.2667 -0.5334,0.4953 -0.3429,0.1905 -0.9906,0.1905 z m 8.61057,0.0762 q -1.6002,-0.0381 -2.5146,-0.5334 -0.8763,-0.5334 -1.2192,-1.3335 -0.1143,-5.334 -0.1524,-10.5918 0,-5.2959 0.1524,-10.4013 0,-1.2192 1.7145,-1.6383 1.7145,-0.4191 4.572,-0.381 2.8956,0 4.9149,0.4953 2.0193,0.4953 3.3909,1.3335 1.3716,0.8382 2.3622,1.905 0.9906,1.0668 1.8288,2.1717 2.1336,4.2672 1.6764,7.9629 -0.4191,3.6957 -3.0099,6.9723 -1.5621,1.7526 -3.7338,2.667 -2.1336,0.8763 -4.7244,1.143 -2.5527,0.2667 -5.2578,0.2286 z m 0.1905,-3.6576 q 3.3909,0.2286 5.7531,-0.2667 2.4003,-0.5334 3.8481,-1.7145 1.4478,-1.1811 2.1336,-2.9337 0.7239,-1.7907 0.8763,-4.0005 -0.1905,-2.9337 -1.1811,-4.8006 -0.9525,-1.8669 -2.6289,-2.8575 -1.6383,-0.9906 -3.8481,-1.2573 -2.2098,-0.2667 -4.9149,0 -0.2286,4.3053 -0.2286,8.763 0.0381,4.4577 0.1905,9.0678 z m 29.1274,3.8481 q -2.4003,0 -4.3815,-0.8763 -1.9812,-0.8763 -3.3909,-2.4384 -1.4097,-1.6002 -2.1336,-3.7338 -0.6858,-2.1717 -0.5334,-4.7625 0.1143,-2.5908 1.0287,-4.9911 0.9525,-2.4003 2.5527,-4.3053 1.6002,-1.905 3.6957,-3.0099 2.1336,-1.143 4.6482,-1.143 1.905,0 3.8862,0.4191 1.9812,0.4191 3.7338,1.3716 1.7907,0.9144 3.1623,2.4765 1.3716,1.524 2.0955,3.7338 0.7239,2.2098 0.5715,5.1816 -0.1143,2.4384 -1.0668,4.3815 -0.9525,1.905 -2.5146,3.3528 -1.524,1.4478 -3.4671,2.4384 -1.905,0.9525 -3.9624,1.4478 -2.0193,0.4572 -3.9243,0.4572 z m 0.762,-3.6957 q 1.3335,0 2.7051,-0.3429 1.3716,-0.381 2.5908,-1.0668 1.2573,-0.7239 2.286,-1.7907 1.0287,-1.1049 1.6383,-2.5527 0.6477,-1.4478 0.7239,-3.2766 0.1524,-2.4765 -0.5715,-4.191 -0.6858,-1.7145 -1.9812,-2.7051 -1.2573,-1.0287 -2.8575,-1.4859 -1.5621,-0.4953 -3.2385,-0.4953 -1.6383,0 -3.1242,0.762 -1.4478,0.762 -2.5908,2.0955 -1.143,1.3335 -1.8288,3.0861 -0.6477,1.7145 -0.762,3.6576 -0.1143,2.5908 0.7239,4.4577 0.8382,1.8669 2.4765,2.8575 1.6383,0.9906 3.81,0.9906 z"
       id="text2"
       aria-label="GUIDO" /></g></svg>
